<?xml version="1.0" encoding="utf-8"?><svg width="auto" height="6020" style="overflow:visible " version="1.1" xmlns="http://www.w3.org/2000/svg"><rect x="20" y="20" width="200" height="40" style="fill:white;stroke:black;stroke-width:1" /><text x="30" y="30" font-size="10" style="fill:blue">etapa</text><rect x="240" y="20" width="200" height="40" style="fill:white;stroke:black;stroke-width:1" /><text x="250" y="30" font-size="10" style="fill:blue">nombre</text><path d="M220 40 C240 40 220 40 240 40" style="fill:transparent;stroke:black" /><rect x="306" y="20" width="137" height="40" style="fill:green;stroke:black;stroke-width:1" /><text x="316" y="30" font-size="8" style="fill:white">Cortegana - La Rábida. Palos de la Frontera</text><rect x="240" y="70" width="200" height="40" style="fill:white;stroke:black;stroke-width:1" /><text x="250" y="80" font-size="10" style="fill:blue">numeroEtapa</text><path d="M220 40 C240 40 220 90 240 90" style="fill:transparent;stroke:black" /><rect x="306" y="70" width="137" height="40" style="fill:green;stroke:black;stroke-width:1" /><text x="316" y="80" font-size="8" style="fill:white">16</text><rect x="240" y="120" width="200" height="40" style="fill:white;stroke:black;stroke-width:1" /><text x="250" y="130" font-size="10" style="fill:blue">longitud</text><path d="M220 40 C240 40 220 140 240 140" style="fill:transparent;stroke:black" /><text x="250" y="140" font-size="8" style="fill:black">unidad: km</text><rect x="306" y="120" width="137" height="40" style="fill:green;stroke:black;stroke-width:1" /><text x="316" y="130" font-size="8" style="fill:white">181.1</text><rect x="240" y="170" width="200" height="40" style="fill:white;stroke:black;stroke-width:1" /><text x="250" y="180" font-size="10" style="fill:blue">fecha</text><path d="M220 40 C240 40 220 190 240 190" style="fill:transparent;stroke:black" /><rect x="306" y="170" width="137" height="40" style="fill:green;stroke:black;stroke-width:1" /><text x="316" y="180" font-size="8" style="fill:white">2026-09-08</text><rect x="240" y="220" width="200" height="40" style="fill:white;stroke:black;stroke-width:1" /><text x="250" y="230" font-size="10" style="fill:blue">tiempoGanador</text><path d="M220 40 C240 40 220 240 240 240" style="fill:transparent;stroke:black" /><rect x="306" y="220" width="137" height="40" style="fill:green;stroke:black;stroke-width:1" /><text x="316" y="230" font-size="8" style="fill:white">03:56:33</text><rect x="240" y="270" width="200" height="40" style="fill:white;stroke:black;stroke-width:1" /><text x="250" y="280" font-size="10" style="fill:blue">velocidadMedia</text><path d="M220 40 C240 40 220 290 240 290" style="fill:transparent;stroke:black" /><text x="250" y="290" font-size="8" style="fill:black">unidad: km/h</text><rect x="306" y="270" width="137" height="40" style="fill:green;stroke:black;stroke-width:1" /><text x="316" y="280" font-size="8" style="fill:white">45.93</text><rect x="240" y="320" width="200" height="40" style="fill:white;stroke:black;stroke-width:1" /><text x="250" y="330" font-size="10" style="fill:blue">desnivel</text><path d="M220 40 C240 40 220 340 240 340" style="fill:transparent;stroke:black" /><text x="250" y="340" font-size="8" style="fill:black">unidad: m</text><rect x="306" y="320" width="137" height="40" style="fill:green;stroke:black;stroke-width:1" /><text x="316" y="330" font-size="8" style="fill:white">2256</text><rect x="240" y="370" width="200" height="40" style="fill:white;stroke:black;stroke-width:1" /><text x="250" y="380" font-size="10" style="fill:blue">lugarSalida</text><path d="M220 40 C240 40 220 390 240 390" style="fill:transparent;stroke:black" /><rect x="306" y="370" width="137" height="40" style="fill:green;stroke:black;stroke-width:1" /><text x="316" y="380" font-size="8" style="fill:white">Cortegana (Huelva)</text><rect x="240" y="420" width="200" height="40" style="fill:white;stroke:black;stroke-width:1" /><text x="250" y="430" font-size="10" style="fill:blue">lugarMeta</text><path d="M220 40 C240 40 220 440 240 440" style="fill:transparent;stroke:black" /><rect x="306" y="420" width="137" height="40" style="fill:green;stroke:black;stroke-width:1" /><text x="316" y="430" font-size="8" style="fill:white">La Rábida, Palos de la Frontera (Huelva)</text><rect x="240" y="470" width="200" height="40" style="fill:white;stroke:black;stroke-width:1" /><text x="250" y="480" font-size="10" style="fill:blue">tipoEtapa</text><path d="M220 40 C240 40 220 490 240 490" style="fill:transparent;stroke:black" /><text x="250" y="490" font-size="8" style="fill:black">valor: media-montaña</text><rect x="240" y="520" width="200" height="40" style="fill:white;stroke:black;stroke-width:1" /><text x="250" y="530" font-size="10" style="fill:blue">referencias</text><path d="M220 40 C240 40 220 540 240 540" style="fill:transparent;stroke:black" /><rect x="460" y="520" width="200" height="40" style="fill:white;stroke:black;stroke-width:1" /><text x="470" y="530" font-size="10" style="fill:blue">referencia</text><path d="M440 540 C460 540 440 540 460 540" style="fill:transparent;stroke:black" /><rect x="526" y="520" width="137" height="40" style="fill:green;stroke:black;stroke-width:1" /><text x="536" y="530" font-size="8" style="fill:white">https://www.cortegana.es</text><rect x="460" y="570" width="200" height="40" style="fill:white;stroke:black;stroke-width:1" /><text x="470" y="580" font-size="10" style="fill:blue">referencia</text><path d="M440 540 C460 540 440 590 460 590" style="fill:transparent;stroke:black" /><rect x="526" y="570" width="137" height="40" style="fill:green;stroke:black;stroke-width:1" /><text x="536" y="580" font-size="8" style="fill:white">https://es.wikipedia.org/wiki/Cortegana</text><rect x="460" y="620" width="200" height="40" style="fill:white;stroke:black;stroke-width:1" /><text x="470" y="630" font-size="10" style="fill:blue">referencia</text><path d="M440 540 C460 540 440 640 460 640" style="fill:transparent;stroke:black" /><rect x="526" y="620" width="137" height="40" style="fill:green;stroke:black;stroke-width:1" /><text x="536" y="630" font-size="8" style="fill:white">https://www.palosfrontera.com</text><rect x="460" y="670" width="200" height="40" style="fill:white;stroke:black;stroke-width:1" /><text x="470" y="680" font-size="10" style="fill:blue">referencia</text><path d="M440 540 C460 540 440 690 460 690" style="fill:transparent;stroke:black" /><rect x="526" y="670" width="137" height="40" style="fill:green;stroke:black;stroke-width:1" /><text x="536" y="680" font-size="8" style="fill:white">https://es.wikipedia.org/wiki/Palos_de_la_Frontera</text><rect x="460" y="720" width="200" height="40" style="fill:white;stroke:black;stroke-width:1" /><text x="470" y="730" font-size="10" style="fill:blue">referencia</text><path d="M440 540 C460 540 440 740 460 740" style="fill:transparent;stroke:black" /><rect x="526" y="720" width="137" height="40" style="fill:green;stroke:black;stroke-width:1" /><text x="536" y="730" font-size="8" style="fill:white">https://www.lavuelta.es/es/etapa-16</text><rect x="240" y="820" width="200" height="40" style="fill:white;stroke:black;stroke-width:1" /><text x="250" y="830" font-size="10" style="fill:blue">galeriaFotos</text><path d="M220 40 C240 40 220 840 240 840" style="fill:transparent;stroke:black" /><rect x="460" y="820" width="200" height="40" style="fill:white;stroke:black;stroke-width:1" /><text x="470" y="830" font-size="10" style="fill:blue">foto</text><path d="M440 840 C460 840 440 840 460 840" style="fill:transparent;stroke:black" /><text x="470" y="840" font-size="8" style="fill:black">archivo: ../multimedia/Salida-Cortegana.jpg</text><text x="470" y="850" font-size="8" style="fill:black">descripcion: Salida de la etapa en Cortegana</text><rect x="460" y="870" width="200" height="40" style="fill:white;stroke:black;stroke-width:1" /><text x="470" y="880" font-size="10" style="fill:blue">foto</text><path d="M440 840 C460 840 440 890 460 890" style="fill:transparent;stroke:black" /><text x="470" y="890" font-size="8" style="fill:black">archivo: ../multimedia/Sprint-Villarrasa.jpg</text><text x="470" y="900" font-size="8" style="fill:black">descripcion: Paso por el esprint intermedio de Villarrasa</text><rect x="460" y="920" width="200" height="40" style="fill:white;stroke:black;stroke-width:1" /><text x="470" y="930" font-size="10" style="fill:blue">foto</text><path d="M440 840 C460 840 440 940 460 940" style="fill:transparent;stroke:black" /><text x="470" y="940" font-size="8" style="fill:black">archivo: ../multimedia/Meta-LaRabida.jpg</text><text x="470" y="950" font-size="8" style="fill:black">descripcion: Llegada a La Rábida, Palos de la Frontera</text><rect x="240" y="1020" width="200" height="40" style="fill:white;stroke:black;stroke-width:1" /><text x="250" y="1030" font-size="10" style="fill:blue">galeriaVideos</text><path d="M220 40 C240 40 220 1040 240 1040" style="fill:transparent;stroke:black" /><rect x="460" y="1020" width="200" height="40" style="fill:white;stroke:black;stroke-width:1" /><text x="470" y="1030" font-size="10" style="fill:blue">video</text><path d="M440 1040 C460 1040 440 1040 460 1040" style="fill:transparent;stroke:black" /><text x="470" y="1040" font-size="8" style="fill:black">archivo: ../multimedia/Resumen-Etapa16.mp4</text><text x="470" y="1050" font-size="8" style="fill:black">descripcion: Resumen oficial de la etapa 16</text><rect x="460" y="1070" width="200" height="40" style="fill:white;stroke:black;stroke-width:1" /><text x="470" y="1080" font-size="10" style="fill:blue">video</text><path d="M440 1040 C460 1040 440 1090 460 1090" style="fill:transparent;stroke:black" /><text x="470" y="1090" font-size="8" style="fill:black">archivo: ../multimedia/UltimoKm-Etapa16.mp4</text><text x="470" y="1100" font-size="8" style="fill:black">descripcion: Último kilómetro y esprint final</text><rect x="240" y="1170" width="200" height="40" style="fill:white;stroke:black;stroke-width:1" /><text x="250" y="1180" font-size="10" style="fill:blue">galeriaPodcasts</text><path d="M220 40 C240 40 220 1190 240 1190" style="fill:transparent;stroke:black" /><rect x="460" y="1170" width="200" height="40" style="fill:white;stroke:black;stroke-width:1" /><text x="470" y="1180" font-size="10" style="fill:blue">podcast</text><path d="M440 1190 C460 1190 440 1190 460 1190" style="fill:transparent;stroke:black" /><text x="470" y="1190" font-size="8" style="fill:black">archivo: ../multimedia/Podcast-Etapa16.mp3</text><text x="470" y="1200" font-size="8" style="fill:black">descripcion: Análisis de la etapa 16</text><rect x="240" y="1270" width="200" height="40" style="fill:white;stroke:black;stroke-width:1" /><text x="250" y="1280" font-size="10" style="fill:blue">coordenadasSalida</text><path d="M220 40 C240 40 220 1290 240 1290" style="fill:transparent;stroke:black" /><rect x="460" y="1270" width="200" height="40" style="fill:white;stroke:black;stroke-width:1" /><text x="470" y="1280" font-size="10" style="fill:blue">longitudGeo</text><path d="M440 1290 C460 1290 440 1290 460 1290" style="fill:transparent;stroke:black" /><text x="470" y="1290" font-size="8" style="fill:black">unidad: grados decimales</text><rect x="526" y="1270" width="137" height="40" style="fill:green;stroke:black;stroke-width:1" /><text x="536" y="1280" font-size="8" style="fill:white">-6.819944</text><rect x="460" y="1320" width="200" height="40" style="fill:white;stroke:black;stroke-width:1" /><text x="470" y="1330" font-size="10" style="fill:blue">latitud</text><path d="M440 1290 C460 1290 440 1340 460 1340" style="fill:transparent;stroke:black" /><text x="470" y="1340" font-size="8" style="fill:black">unidad: grados decimales</text><rect x="526" y="1320" width="137" height="40" style="fill:green;stroke:black;stroke-width:1" /><text x="536" y="1330" font-size="8" style="fill:white">37.914528</text><rect x="460" y="1370" width="200" height="40" style="fill:white;stroke:black;stroke-width:1" /><text x="470" y="1380" font-size="10" style="fill:blue">altitud</text><path d="M440 1290 C460 1290 440 1390 460 1390" style="fill:transparent;stroke:black" /><text x="470" y="1390" font-size="8" style="fill:black">unidad: m</text><rect x="526" y="1370" width="137" height="40" style="fill:green;stroke:black;stroke-width:1" /><text x="536" y="1380" font-size="8" style="fill:white">612</text><rect x="240" y="1470" width="200" height="40" style="fill:white;stroke:black;stroke-width:1" /><text x="250" y="1480" font-size="10" style="fill:blue">coordenadasMeta</text><path d="M220 40 C240 40 220 1490 240 1490" style="fill:transparent;stroke:black" /><rect x="460" y="1470" width="200" height="40" style="fill:white;stroke:black;stroke-width:1" /><text x="470" y="1480" font-size="10" style="fill:blue">longitudGeo</text><path d="M440 1490 C460 1490 440 1490 460 1490" style="fill:transparent;stroke:black" /><text x="470" y="1490" font-size="8" style="fill:black">unidad: grados decimales</text><rect x="526" y="1470" width="137" height="40" style="fill:green;stroke:black;stroke-width:1" /><text x="536" y="1480" font-size="8" style="fill:white">-6.923333</text><rect x="460" y="1520" width="200" height="40" style="fill:white;stroke:black;stroke-width:1" /><text x="470" y="1530" font-size="10" style="fill:blue">latitud</text><path d="M440 1490 C460 1490 440 1540 460 1540" style="fill:transparent;stroke:black" /><text x="470" y="1540" font-size="8" style="fill:black">unidad: grados decimales</text><rect x="526" y="1520" width="137" height="40" style="fill:green;stroke:black;stroke-width:1" /><text x="536" y="1530" font-size="8" style="fill:white">37.201528</text><rect x="460" y="1570" width="200" height="40" style="fill:white;stroke:black;stroke-width:1" /><text x="470" y="1580" font-size="10" style="fill:blue">altitud</text><path d="M440 1490 C460 1490 440 1590 460 1590" style="fill:transparent;stroke:black" /><text x="470" y="1590" font-size="8" style="fill:black">unidad: m</text><rect x="526" y="1570" width="137" height="40" style="fill:green;stroke:black;stroke-width:1" /><text x="536" y="1580" font-size="8" style="fill:white">8</text><rect x="240" y="1670" width="200" height="40" style="fill:white;stroke:black;stroke-width:1" /><text x="250" y="1680" font-size="10" style="fill:blue">hitos</text><path d="M220 40 C240 40 220 1690 240 1690" style="fill:transparent;stroke:black" /><rect x="460" y="1670" width="200" height="40" style="fill:white;stroke:black;stroke-width:1" /><text x="470" y="1680" font-size="10" style="fill:blue">sprint</text><path d="M440 1690 C460 1690 440 1690 460 1690" style="fill:transparent;stroke:black" /><text x="470" y="1690" font-size="8" style="fill:black">tipo: intermedio</text><rect x="680" y="1670" width="200" height="40" style="fill:white;stroke:black;stroke-width:1" /><text x="690" y="1680" font-size="10" style="fill:blue">lugar</text><path d="M660 1690 C680 1690 660 1690 680 1690" style="fill:transparent;stroke:black" /><rect x="746" y="1670" width="137" height="40" style="fill:green;stroke:black;stroke-width:1" /><text x="756" y="1680" font-size="8" style="fill:white">Villarrasa</text><rect x="680" y="1720" width="200" height="40" style="fill:white;stroke:black;stroke-width:1" /><text x="690" y="1730" font-size="10" style="fill:blue">coordenadas</text><path d="M660 1690 C680 1690 660 1740 680 1740" style="fill:transparent;stroke:black" /><rect x="900" y="1720" width="200" height="40" style="fill:white;stroke:black;stroke-width:1" /><text x="910" y="1730" font-size="10" style="fill:blue">longitudGeo</text><path d="M880 1740 C900 1740 880 1740 900 1740" style="fill:transparent;stroke:black" /><text x="910" y="1740" font-size="8" style="fill:black">unidad: grados decimales</text><rect x="966" y="1720" width="137" height="40" style="fill:green;stroke:black;stroke-width:1" /><text x="976" y="1730" font-size="8" style="fill:white">-6.5989</text><rect x="900" y="1770" width="200" height="40" style="fill:white;stroke:black;stroke-width:1" /><text x="910" y="1780" font-size="10" style="fill:blue">latitud</text><path d="M880 1740 C900 1740 880 1790 900 1790" style="fill:transparent;stroke:black" /><text x="910" y="1790" font-size="8" style="fill:black">unidad: grados decimales</text><rect x="966" y="1770" width="137" height="40" style="fill:green;stroke:black;stroke-width:1" /><text x="976" y="1780" font-size="8" style="fill:white">37.3870</text><rect x="900" y="1820" width="200" height="40" style="fill:white;stroke:black;stroke-width:1" /><text x="910" y="1830" font-size="10" style="fill:blue">altitud</text><path d="M880 1740 C900 1740 880 1840 900 1840" style="fill:transparent;stroke:black" /><text x="910" y="1840" font-size="8" style="fill:black">unidad: m</text><rect x="966" y="1820" width="137" height="40" style="fill:green;stroke:black;stroke-width:1" /><text x="976" y="1830" font-size="8" style="fill:white">73</text><rect x="680" y="1920" width="200" height="40" style="fill:white;stroke:black;stroke-width:1" /><text x="690" y="1930" font-size="10" style="fill:blue">distanciaSalida</text><path d="M660 1690 C680 1690 660 1940 680 1940" style="fill:transparent;stroke:black" /><text x="690" y="1940" font-size="8" style="fill:black">unidad: km</text><rect x="746" y="1920" width="137" height="40" style="fill:green;stroke:black;stroke-width:1" /><text x="756" y="1930" font-size="8" style="fill:white">114.5</text><rect x="460" y="2020" width="200" height="40" style="fill:white;stroke:black;stroke-width:1" /><text x="470" y="2030" font-size="10" style="fill:blue">puntoAnonimo</text><path d="M440 1690 C460 1690 440 2040 460 2040" style="fill:transparent;stroke:black" /><text x="470" y="2040" font-size="8" style="fill:black">nombre: Fuenteheridos</text><rect x="680" y="2020" width="200" height="40" style="fill:white;stroke:black;stroke-width:1" /><text x="690" y="2030" font-size="10" style="fill:blue">coordenadas</text><path d="M660 2040 C680 2040 660 2040 680 2040" style="fill:transparent;stroke:black" /><rect x="900" y="2020" width="200" height="40" style="fill:white;stroke:black;stroke-width:1" /><text x="910" y="2030" font-size="10" style="fill:blue">longitudGeo</text><path d="M880 2040 C900 2040 880 2040 900 2040" style="fill:transparent;stroke:black" /><text x="910" y="2040" font-size="8" style="fill:black">unidad: grados decimales</text><rect x="966" y="2020" width="137" height="40" style="fill:green;stroke:black;stroke-width:1" /><text x="976" y="2030" font-size="8" style="fill:white">-6.6610</text><rect x="900" y="2070" width="200" height="40" style="fill:white;stroke:black;stroke-width:1" /><text x="910" y="2080" font-size="10" style="fill:blue">latitud</text><path d="M880 2040 C900 2040 880 2090 900 2090" style="fill:transparent;stroke:black" /><text x="910" y="2090" font-size="8" style="fill:black">unidad: grados decimales</text><rect x="966" y="2070" width="137" height="40" style="fill:green;stroke:black;stroke-width:1" /><text x="976" y="2080" font-size="8" style="fill:white">37.9038</text><rect x="900" y="2120" width="200" height="40" style="fill:white;stroke:black;stroke-width:1" /><text x="910" y="2130" font-size="10" style="fill:blue">altitud</text><path d="M880 2040 C900 2040 880 2140 900 2140" style="fill:transparent;stroke:black" /><text x="910" y="2140" font-size="8" style="fill:black">unidad: m</text><rect x="966" y="2120" width="137" height="40" style="fill:green;stroke:black;stroke-width:1" /><text x="976" y="2130" font-size="8" style="fill:white">733</text><rect x="680" y="2220" width="200" height="40" style="fill:white;stroke:black;stroke-width:1" /><text x="690" y="2230" font-size="10" style="fill:blue">distanciaSalida</text><path d="M660 2040 C680 2040 660 2240 680 2240" style="fill:transparent;stroke:black" /><text x="690" y="2240" font-size="8" style="fill:black">unidad: km</text><rect x="746" y="2220" width="137" height="40" style="fill:green;stroke:black;stroke-width:1" /><text x="756" y="2230" font-size="8" style="fill:white">21.9</text><rect x="460" y="2320" width="200" height="40" style="fill:white;stroke:black;stroke-width:1" /><text x="470" y="2330" font-size="10" style="fill:blue">puntoAnonimo</text><path d="M440 1690 C460 1690 440 2340 460 2340" style="fill:transparent;stroke:black" /><text x="470" y="2340" font-size="8" style="fill:black">nombre: Aracena</text><rect x="680" y="2320" width="200" height="40" style="fill:white;stroke:black;stroke-width:1" /><text x="690" y="2330" font-size="10" style="fill:blue">coordenadas</text><path d="M660 2340 C680 2340 660 2340 680 2340" style="fill:transparent;stroke:black" /><rect x="900" y="2320" width="200" height="40" style="fill:white;stroke:black;stroke-width:1" /><text x="910" y="2330" font-size="10" style="fill:blue">longitudGeo</text><path d="M880 2340 C900 2340 880 2340 900 2340" style="fill:transparent;stroke:black" /><text x="910" y="2340" font-size="8" style="fill:black">unidad: grados decimales</text><rect x="966" y="2320" width="137" height="40" style="fill:green;stroke:black;stroke-width:1" /><text x="976" y="2330" font-size="8" style="fill:white">-6.5653</text><rect x="900" y="2370" width="200" height="40" style="fill:white;stroke:black;stroke-width:1" /><text x="910" y="2380" font-size="10" style="fill:blue">latitud</text><path d="M880 2340 C900 2340 880 2390 900 2390" style="fill:transparent;stroke:black" /><text x="910" y="2390" font-size="8" style="fill:black">unidad: grados decimales</text><rect x="966" y="2370" width="137" height="40" style="fill:green;stroke:black;stroke-width:1" /><text x="976" y="2380" font-size="8" style="fill:white">37.8939</text><rect x="900" y="2420" width="200" height="40" style="fill:white;stroke:black;stroke-width:1" /><text x="910" y="2430" font-size="10" style="fill:blue">altitud</text><path d="M880 2340 C900 2340 880 2440 900 2440" style="fill:transparent;stroke:black" /><text x="910" y="2440" font-size="8" style="fill:black">unidad: m</text><rect x="966" y="2420" width="137" height="40" style="fill:green;stroke:black;stroke-width:1" /><text x="976" y="2430" font-size="8" style="fill:white">714</text><rect x="680" y="2520" width="200" height="40" style="fill:white;stroke:black;stroke-width:1" /><text x="690" y="2530" font-size="10" style="fill:blue">distanciaSalida</text><path d="M660 2340 C680 2340 660 2540 680 2540" style="fill:transparent;stroke:black" /><text x="690" y="2540" font-size="8" style="fill:black">unidad: km</text><rect x="746" y="2520" width="137" height="40" style="fill:green;stroke:black;stroke-width:1" /><text x="756" y="2530" font-size="8" style="fill:white">31.4</text><rect x="460" y="2620" width="200" height="40" style="fill:white;stroke:black;stroke-width:1" /><text x="470" y="2630" font-size="10" style="fill:blue">puntoAnonimo</text><path d="M440 1690 C460 1690 440 2640 460 2640" style="fill:transparent;stroke:black" /><text x="470" y="2640" font-size="8" style="fill:black">nombre: Minas de Riotinto</text><rect x="680" y="2620" width="200" height="40" style="fill:white;stroke:black;stroke-width:1" /><text x="690" y="2630" font-size="10" style="fill:blue">coordenadas</text><path d="M660 2640 C680 2640 660 2640 680 2640" style="fill:transparent;stroke:black" /><rect x="900" y="2620" width="200" height="40" style="fill:white;stroke:black;stroke-width:1" /><text x="910" y="2630" font-size="10" style="fill:blue">longitudGeo</text><path d="M880 2640 C900 2640 880 2640 900 2640" style="fill:transparent;stroke:black" /><text x="910" y="2640" font-size="8" style="fill:black">unidad: grados decimales</text><rect x="966" y="2620" width="137" height="40" style="fill:green;stroke:black;stroke-width:1" /><text x="976" y="2630" font-size="8" style="fill:white">-6.5911</text><rect x="900" y="2670" width="200" height="40" style="fill:white;stroke:black;stroke-width:1" /><text x="910" y="2680" font-size="10" style="fill:blue">latitud</text><path d="M880 2640 C900 2640 880 2690 900 2690" style="fill:transparent;stroke:black" /><text x="910" y="2690" font-size="8" style="fill:black">unidad: grados decimales</text><rect x="966" y="2670" width="137" height="40" style="fill:green;stroke:black;stroke-width:1" /><text x="976" y="2680" font-size="8" style="fill:white">37.6903</text><rect x="900" y="2720" width="200" height="40" style="fill:white;stroke:black;stroke-width:1" /><text x="910" y="2730" font-size="10" style="fill:blue">altitud</text><path d="M880 2640 C900 2640 880 2740 900 2740" style="fill:transparent;stroke:black" /><text x="910" y="2740" font-size="8" style="fill:black">unidad: m</text><rect x="966" y="2720" width="137" height="40" style="fill:green;stroke:black;stroke-width:1" /><text x="976" y="2730" font-size="8" style="fill:white">422</text><rect x="680" y="2820" width="200" height="40" style="fill:white;stroke:black;stroke-width:1" /><text x="690" y="2830" font-size="10" style="fill:blue">distanciaSalida</text><path d="M660 2640 C680 2640 660 2840 680 2840" style="fill:transparent;stroke:black" /><text x="690" y="2840" font-size="8" style="fill:black">unidad: km</text><rect x="746" y="2820" width="137" height="40" style="fill:green;stroke:black;stroke-width:1" /><text x="756" y="2830" font-size="8" style="fill:white">63.1</text><rect x="460" y="2920" width="200" height="40" style="fill:white;stroke:black;stroke-width:1" /><text x="470" y="2930" font-size="10" style="fill:blue">puntoAnonimo</text><path d="M440 1690 C460 1690 440 2940 460 2940" style="fill:transparent;stroke:black" /><text x="470" y="2940" font-size="8" style="fill:black">nombre: La Palma del Condado</text><rect x="680" y="2920" width="200" height="40" style="fill:white;stroke:black;stroke-width:1" /><text x="690" y="2930" font-size="10" style="fill:blue">coordenadas</text><path d="M660 2940 C680 2940 660 2940 680 2940" style="fill:transparent;stroke:black" /><rect x="900" y="2920" width="200" height="40" style="fill:white;stroke:black;stroke-width:1" /><text x="910" y="2930" font-size="10" style="fill:blue">longitudGeo</text><path d="M880 2940 C900 2940 880 2940 900 2940" style="fill:transparent;stroke:black" /><text x="910" y="2940" font-size="8" style="fill:black">unidad: grados decimales</text><rect x="966" y="2920" width="137" height="40" style="fill:green;stroke:black;stroke-width:1" /><text x="976" y="2930" font-size="8" style="fill:white">-6.5517</text><rect x="900" y="2970" width="200" height="40" style="fill:white;stroke:black;stroke-width:1" /><text x="910" y="2980" font-size="10" style="fill:blue">latitud</text><path d="M880 2940 C900 2940 880 2990 900 2990" style="fill:transparent;stroke:black" /><text x="910" y="2990" font-size="8" style="fill:black">unidad: grados decimales</text><rect x="966" y="2970" width="137" height="40" style="fill:green;stroke:black;stroke-width:1" /><text x="976" y="2980" font-size="8" style="fill:white">37.3842</text><rect x="900" y="3020" width="200" height="40" style="fill:white;stroke:black;stroke-width:1" /><text x="910" y="3030" font-size="10" style="fill:blue">altitud</text><path d="M880 2940 C900 2940 880 3040 900 3040" style="fill:transparent;stroke:black" /><text x="910" y="3040" font-size="8" style="fill:black">unidad: m</text><rect x="966" y="3020" width="137" height="40" style="fill:green;stroke:black;stroke-width:1" /><text x="976" y="3030" font-size="8" style="fill:white">81</text><rect x="680" y="3120" width="200" height="40" style="fill:white;stroke:black;stroke-width:1" /><text x="690" y="3130" font-size="10" style="fill:blue">distanciaSalida</text><path d="M660 2940 C680 2940 660 3140 680 3140" style="fill:transparent;stroke:black" /><text x="690" y="3140" font-size="8" style="fill:black">unidad: km</text><rect x="746" y="3120" width="137" height="40" style="fill:green;stroke:black;stroke-width:1" /><text x="756" y="3130" font-size="8" style="fill:white">111.0</text><rect x="460" y="3220" width="200" height="40" style="fill:white;stroke:black;stroke-width:1" /><text x="470" y="3230" font-size="10" style="fill:blue">puntoAnonimo</text><path d="M440 1690 C460 1690 440 3240 460 3240" style="fill:transparent;stroke:black" /><text x="470" y="3240" font-size="8" style="fill:black">nombre: Lucena del Puerto</text><rect x="680" y="3220" width="200" height="40" style="fill:white;stroke:black;stroke-width:1" /><text x="690" y="3230" font-size="10" style="fill:blue">coordenadas</text><path d="M660 3240 C680 3240 660 3240 680 3240" style="fill:transparent;stroke:black" /><rect x="900" y="3220" width="200" height="40" style="fill:white;stroke:black;stroke-width:1" /><text x="910" y="3230" font-size="10" style="fill:blue">longitudGeo</text><path d="M880 3240 C900 3240 880 3240 900 3240" style="fill:transparent;stroke:black" /><text x="910" y="3240" font-size="8" style="fill:black">unidad: grados decimales</text><rect x="966" y="3220" width="137" height="40" style="fill:green;stroke:black;stroke-width:1" /><text x="976" y="3230" font-size="8" style="fill:white">-6.7293</text><rect x="900" y="3270" width="200" height="40" style="fill:white;stroke:black;stroke-width:1" /><text x="910" y="3280" font-size="10" style="fill:blue">latitud</text><path d="M880 3240 C900 3240 880 3290 900 3290" style="fill:transparent;stroke:black" /><text x="910" y="3290" font-size="8" style="fill:black">unidad: grados decimales</text><rect x="966" y="3270" width="137" height="40" style="fill:green;stroke:black;stroke-width:1" /><text x="976" y="3280" font-size="8" style="fill:white">37.3040</text><rect x="900" y="3320" width="200" height="40" style="fill:white;stroke:black;stroke-width:1" /><text x="910" y="3330" font-size="10" style="fill:blue">altitud</text><path d="M880 3240 C900 3240 880 3340 900 3340" style="fill:transparent;stroke:black" /><text x="910" y="3340" font-size="8" style="fill:black">unidad: m</text><rect x="966" y="3320" width="137" height="40" style="fill:green;stroke:black;stroke-width:1" /><text x="976" y="3330" font-size="8" style="fill:white">89</text><rect x="680" y="3420" width="200" height="40" style="fill:white;stroke:black;stroke-width:1" /><text x="690" y="3430" font-size="10" style="fill:blue">distanciaSalida</text><path d="M660 3240 C680 3240 660 3440 680 3440" style="fill:transparent;stroke:black" /><text x="690" y="3440" font-size="8" style="fill:black">unidad: km</text><rect x="746" y="3420" width="137" height="40" style="fill:green;stroke:black;stroke-width:1" /><text x="756" y="3430" font-size="8" style="fill:white">136.0</text><rect x="460" y="3520" width="200" height="40" style="fill:white;stroke:black;stroke-width:1" /><text x="470" y="3530" font-size="10" style="fill:blue">puntoAnonimo</text><path d="M440 1690 C460 1690 440 3540 460 3540" style="fill:transparent;stroke:black" /><text x="470" y="3540" font-size="8" style="fill:black">nombre: Moguer</text><rect x="680" y="3520" width="200" height="40" style="fill:white;stroke:black;stroke-width:1" /><text x="690" y="3530" font-size="10" style="fill:blue">coordenadas</text><path d="M660 3540 C680 3540 660 3540 680 3540" style="fill:transparent;stroke:black" /><rect x="900" y="3520" width="200" height="40" style="fill:white;stroke:black;stroke-width:1" /><text x="910" y="3530" font-size="10" style="fill:blue">longitudGeo</text><path d="M880 3540 C900 3540 880 3540 900 3540" style="fill:transparent;stroke:black" /><text x="910" y="3540" font-size="8" style="fill:black">unidad: grados decimales</text><rect x="966" y="3520" width="137" height="40" style="fill:green;stroke:black;stroke-width:1" /><text x="976" y="3530" font-size="8" style="fill:white">-6.8385</text><rect x="900" y="3570" width="200" height="40" style="fill:white;stroke:black;stroke-width:1" /><text x="910" y="3580" font-size="10" style="fill:blue">latitud</text><path d="M880 3540 C900 3540 880 3590 900 3590" style="fill:transparent;stroke:black" /><text x="910" y="3590" font-size="8" style="fill:black">unidad: grados decimales</text><rect x="966" y="3570" width="137" height="40" style="fill:green;stroke:black;stroke-width:1" /><text x="976" y="3580" font-size="8" style="fill:white">37.2755</text><rect x="900" y="3620" width="200" height="40" style="fill:white;stroke:black;stroke-width:1" /><text x="910" y="3630" font-size="10" style="fill:blue">altitud</text><path d="M880 3540 C900 3540 880 3640 900 3640" style="fill:transparent;stroke:black" /><text x="910" y="3640" font-size="8" style="fill:black">unidad: m</text><rect x="966" y="3620" width="137" height="40" style="fill:green;stroke:black;stroke-width:1" /><text x="976" y="3630" font-size="8" style="fill:white">56</text><rect x="680" y="3720" width="200" height="40" style="fill:white;stroke:black;stroke-width:1" /><text x="690" y="3730" font-size="10" style="fill:blue">distanciaSalida</text><path d="M660 3540 C680 3540 660 3740 680 3740" style="fill:transparent;stroke:black" /><text x="690" y="3740" font-size="8" style="fill:black">unidad: km</text><rect x="746" y="3720" width="137" height="40" style="fill:green;stroke:black;stroke-width:1" /><text x="756" y="3730" font-size="8" style="fill:white">147.2</text><rect x="460" y="3820" width="200" height="40" style="fill:white;stroke:black;stroke-width:1" /><text x="470" y="3830" font-size="10" style="fill:blue">puntoAnonimo</text><path d="M440 1690 C460 1690 440 3840 460 3840" style="fill:transparent;stroke:black" /><text x="470" y="3840" font-size="8" style="fill:black">nombre: Palos de la Frontera</text><rect x="680" y="3820" width="200" height="40" style="fill:white;stroke:black;stroke-width:1" /><text x="690" y="3830" font-size="10" style="fill:blue">coordenadas</text><path d="M660 3840 C680 3840 660 3840 680 3840" style="fill:transparent;stroke:black" /><rect x="900" y="3820" width="200" height="40" style="fill:white;stroke:black;stroke-width:1" /><text x="910" y="3830" font-size="10" style="fill:blue">longitudGeo</text><path d="M880 3840 C900 3840 880 3840 900 3840" style="fill:transparent;stroke:black" /><text x="910" y="3840" font-size="8" style="fill:black">unidad: grados decimales</text><rect x="966" y="3820" width="137" height="40" style="fill:green;stroke:black;stroke-width:1" /><text x="976" y="3830" font-size="8" style="fill:white">-6.8930</text><rect x="900" y="3870" width="200" height="40" style="fill:white;stroke:black;stroke-width:1" /><text x="910" y="3880" font-size="10" style="fill:blue">latitud</text><path d="M880 3840 C900 3840 880 3890 900 3890" style="fill:transparent;stroke:black" /><text x="910" y="3890" font-size="8" style="fill:black">unidad: grados decimales</text><rect x="966" y="3870" width="137" height="40" style="fill:green;stroke:black;stroke-width:1" /><text x="976" y="3880" font-size="8" style="fill:white">37.2306</text><rect x="900" y="3920" width="200" height="40" style="fill:white;stroke:black;stroke-width:1" /><text x="910" y="3930" font-size="10" style="fill:blue">altitud</text><path d="M880 3840 C900 3840 880 3940 900 3940" style="fill:transparent;stroke:black" /><text x="910" y="3940" font-size="8" style="fill:black">unidad: m</text><rect x="966" y="3920" width="137" height="40" style="fill:green;stroke:black;stroke-width:1" /><text x="976" y="3930" font-size="8" style="fill:white">10</text><rect x="680" y="4020" width="200" height="40" style="fill:white;stroke:black;stroke-width:1" /><text x="690" y="4030" font-size="10" style="fill:blue">distanciaSalida</text><path d="M660 3840 C680 3840 660 4040 680 4040" style="fill:transparent;stroke:black" /><text x="690" y="4040" font-size="8" style="fill:black">unidad: km</text><rect x="746" y="4020" width="137" height="40" style="fill:green;stroke:black;stroke-width:1" /><text x="756" y="4030" font-size="8" style="fill:white">155.4</text><rect x="240" y="4170" width="200" height="40" style="fill:white;stroke:black;stroke-width:1" /><text x="250" y="4180" font-size="10" style="fill:blue">clasificacionEtapa</text><path d="M220 40 C240 40 220 4190 240 4190" style="fill:transparent;stroke:black" /><rect x="460" y="4170" width="200" height="40" style="fill:white;stroke:black;stroke-width:1" /><text x="470" y="4180" font-size="10" style="fill:blue">corredorEtapa</text><path d="M440 4190 C460 4190 440 4190 460 4190" style="fill:transparent;stroke:black" /><text x="470" y="4190" font-size="8" style="fill:black">posicion: 1</text><rect x="680" y="4170" width="200" height="40" style="fill:white;stroke:black;stroke-width:1" /><text x="690" y="4180" font-size="10" style="fill:blue">nombreCorredor</text><path d="M660 4190 C680 4190 660 4190 680 4190" style="fill:transparent;stroke:black" /><rect x="746" y="4170" width="137" height="40" style="fill:green;stroke:black;stroke-width:1" /><text x="756" y="4180" font-size="8" style="fill:white">Matthew Brennan</text><rect x="680" y="4220" width="200" height="40" style="fill:white;stroke:black;stroke-width:1" /><text x="690" y="4230" font-size="10" style="fill:blue">equipo</text><path d="M660 4190 C680 4190 660 4240 680 4240" style="fill:transparent;stroke:black" /><rect x="746" y="4220" width="137" height="40" style="fill:green;stroke:black;stroke-width:1" /><text x="756" y="4230" font-size="8" style="fill:white">Team Visma | Lease a Bike</text><rect x="680" y="4270" width="200" height="40" style="fill:white;stroke:black;stroke-width:1" /><text x="690" y="4280" font-size="10" style="fill:blue">diferencia</text><path d="M660 4190 C680 4190 660 4290 680 4290" style="fill:transparent;stroke:black" /><rect x="746" y="4270" width="137" height="40" style="fill:green;stroke:black;stroke-width:1" /><text x="756" y="4280" font-size="8" style="fill:white">0s</text><rect x="460" y="4370" width="200" height="40" style="fill:white;stroke:black;stroke-width:1" /><text x="470" y="4380" font-size="10" style="fill:blue">corredorEtapa</text><path d="M440 4190 C460 4190 440 4390 460 4390" style="fill:transparent;stroke:black" /><text x="470" y="4390" font-size="8" style="fill:black">posicion: 2</text><rect x="680" y="4370" width="200" height="40" style="fill:white;stroke:black;stroke-width:1" /><text x="690" y="4380" font-size="10" style="fill:blue">nombreCorredor</text><path d="M660 4390 C680 4390 660 4390 680 4390" style="fill:transparent;stroke:black" /><rect x="746" y="4370" width="137" height="40" style="fill:green;stroke:black;stroke-width:1" /><text x="756" y="4380" font-size="8" style="fill:white">Bryan Coquard</text><rect x="680" y="4420" width="200" height="40" style="fill:white;stroke:black;stroke-width:1" /><text x="690" y="4430" font-size="10" style="fill:blue">equipo</text><path d="M660 4390 C680 4390 660 4440 680 4440" style="fill:transparent;stroke:black" /><rect x="746" y="4420" width="137" height="40" style="fill:green;stroke:black;stroke-width:1" /><text x="756" y="4430" font-size="8" style="fill:white">Cofidis</text><rect x="680" y="4470" width="200" height="40" style="fill:white;stroke:black;stroke-width:1" /><text x="690" y="4480" font-size="10" style="fill:blue">diferencia</text><path d="M660 4390 C680 4390 660 4490 680 4490" style="fill:transparent;stroke:black" /><rect x="746" y="4470" width="137" height="40" style="fill:green;stroke:black;stroke-width:1" /><text x="756" y="4480" font-size="8" style="fill:white">m.t.</text><rect x="460" y="4570" width="200" height="40" style="fill:white;stroke:black;stroke-width:1" /><text x="470" y="4580" font-size="10" style="fill:blue">corredorEtapa</text><path d="M440 4190 C460 4190 440 4590 460 4590" style="fill:transparent;stroke:black" /><text x="470" y="4590" font-size="8" style="fill:black">posicion: 3</text><rect x="680" y="4570" width="200" height="40" style="fill:white;stroke:black;stroke-width:1" /><text x="690" y="4580" font-size="10" style="fill:blue">nombreCorredor</text><path d="M660 4590 C680 4590 660 4590 680 4590" style="fill:transparent;stroke:black" /><rect x="746" y="4570" width="137" height="40" style="fill:green;stroke:black;stroke-width:1" /><text x="756" y="4580" font-size="8" style="fill:white">Vito Braet</text><rect x="680" y="4620" width="200" height="40" style="fill:white;stroke:black;stroke-width:1" /><text x="690" y="4630" font-size="10" style="fill:blue">equipo</text><path d="M660 4590 C680 4590 660 4640 680 4640" style="fill:transparent;stroke:black" /><rect x="746" y="4620" width="137" height="40" style="fill:green;stroke:black;stroke-width:1" /><text x="756" y="4630" font-size="8" style="fill:white">Lotto Intermarché</text><rect x="680" y="4670" width="200" height="40" style="fill:white;stroke:black;stroke-width:1" /><text x="690" y="4680" font-size="10" style="fill:blue">diferencia</text><path d="M660 4590 C680 4590 660 4690 680 4690" style="fill:transparent;stroke:black" /><rect x="746" y="4670" width="137" height="40" style="fill:green;stroke:black;stroke-width:1" /><text x="756" y="4680" font-size="8" style="fill:white">m.t.</text><rect x="240" y="4820" width="200" height="40" style="fill:white;stroke:black;stroke-width:1" /><text x="250" y="4830" font-size="10" style="fill:blue">clasificacionGeneral</text><path d="M220 40 C240 40 220 4840 240 4840" style="fill:transparent;stroke:black" /><rect x="460" y="4820" width="200" height="40" style="fill:white;stroke:black;stroke-width:1" /><text x="470" y="4830" font-size="10" style="fill:blue">corredorGeneral</text><path d="M440 4840 C460 4840 440 4840 460 4840" style="fill:transparent;stroke:black" /><text x="470" y="4840" font-size="8" style="fill:black">posicion: 1</text><rect x="680" y="4820" width="200" height="40" style="fill:white;stroke:black;stroke-width:1" /><text x="690" y="4830" font-size="10" style="fill:blue">nombreCorredor</text><path d="M660 4840 C680 4840 660 4840 680 4840" style="fill:transparent;stroke:black" /><rect x="746" y="4820" width="137" height="40" style="fill:green;stroke:black;stroke-width:1" /><text x="756" y="4830" font-size="8" style="fill:white">Enric Mas</text><rect x="680" y="4870" width="200" height="40" style="fill:white;stroke:black;stroke-width:1" /><text x="690" y="4880" font-size="10" style="fill:blue">equipo</text><path d="M660 4840 C680 4840 660 4890 680 4890" style="fill:transparent;stroke:black" /><rect x="746" y="4870" width="137" height="40" style="fill:green;stroke:black;stroke-width:1" /><text x="756" y="4880" font-size="8" style="fill:white">Movistar Team</text><rect x="680" y="4920" width="200" height="40" style="fill:white;stroke:black;stroke-width:1" /><text x="690" y="4930" font-size="10" style="fill:blue">diferencia</text><path d="M660 4840 C680 4840 660 4940 680 4940" style="fill:transparent;stroke:black" /><rect x="746" y="4920" width="137" height="40" style="fill:green;stroke:black;stroke-width:1" /><text x="756" y="4930" font-size="8" style="fill:white">líder</text><rect x="460" y="5020" width="200" height="40" style="fill:white;stroke:black;stroke-width:1" /><text x="470" y="5030" font-size="10" style="fill:blue">corredorGeneral</text><path d="M440 4840 C460 4840 440 5040 460 5040" style="fill:transparent;stroke:black" /><text x="470" y="5040" font-size="8" style="fill:black">posicion: 2</text><rect x="680" y="5020" width="200" height="40" style="fill:white;stroke:black;stroke-width:1" /><text x="690" y="5030" font-size="10" style="fill:blue">nombreCorredor</text><path d="M660 5040 C680 5040 660 5040 680 5040" style="fill:transparent;stroke:black" /><rect x="746" y="5020" width="137" height="40" style="fill:green;stroke:black;stroke-width:1" /><text x="756" y="5030" font-size="8" style="fill:white">Felix Gall</text><rect x="680" y="5070" width="200" height="40" style="fill:white;stroke:black;stroke-width:1" /><text x="690" y="5080" font-size="10" style="fill:blue">equipo</text><path d="M660 5040 C680 5040 660 5090 680 5090" style="fill:transparent;stroke:black" /><rect x="746" y="5070" width="137" height="40" style="fill:green;stroke:black;stroke-width:1" /><text x="756" y="5080" font-size="8" style="fill:white">Decathlon CMA CGM</text><rect x="680" y="5120" width="200" height="40" style="fill:white;stroke:black;stroke-width:1" /><text x="690" y="5130" font-size="10" style="fill:blue">diferencia</text><path d="M660 5040 C680 5040 660 5140 680 5140" style="fill:transparent;stroke:black" /><rect x="746" y="5120" width="137" height="40" style="fill:green;stroke:black;stroke-width:1" /><text x="756" y="5130" font-size="8" style="fill:white">+2'06"</text><rect x="460" y="5220" width="200" height="40" style="fill:white;stroke:black;stroke-width:1" /><text x="470" y="5230" font-size="10" style="fill:blue">corredorGeneral</text><path d="M440 4840 C460 4840 440 5240 460 5240" style="fill:transparent;stroke:black" /><text x="470" y="5240" font-size="8" style="fill:black">posicion: 3</text><rect x="680" y="5220" width="200" height="40" style="fill:white;stroke:black;stroke-width:1" /><text x="690" y="5230" font-size="10" style="fill:blue">nombreCorredor</text><path d="M660 5240 C680 5240 660 5240 680 5240" style="fill:transparent;stroke:black" /><rect x="746" y="5220" width="137" height="40" style="fill:green;stroke:black;stroke-width:1" /><text x="756" y="5230" font-size="8" style="fill:white">Primoz Roglic</text><rect x="680" y="5270" width="200" height="40" style="fill:white;stroke:black;stroke-width:1" /><text x="690" y="5280" font-size="10" style="fill:blue">equipo</text><path d="M660 5240 C680 5240 660 5290 680 5290" style="fill:transparent;stroke:black" /><rect x="746" y="5270" width="137" height="40" style="fill:green;stroke:black;stroke-width:1" /><text x="756" y="5280" font-size="8" style="fill:white">Red Bull-BORA-hansgrohe</text><rect x="680" y="5320" width="200" height="40" style="fill:white;stroke:black;stroke-width:1" /><text x="690" y="5330" font-size="10" style="fill:blue">diferencia</text><path d="M660 5240 C680 5240 660 5340 680 5340" style="fill:transparent;stroke:black" /><rect x="746" y="5320" width="137" height="40" style="fill:green;stroke:black;stroke-width:1" /><text x="756" y="5330" font-size="8" style="fill:white">+2'10"</text><rect x="240" y="5470" width="200" height="40" style="fill:white;stroke:black;stroke-width:1" /><text x="250" y="5480" font-size="10" style="fill:blue">clasificacionEquipos</text><path d="M220 40 C240 40 220 5490 240 5490" style="fill:transparent;stroke:black" /><rect x="460" y="5470" width="200" height="40" style="fill:white;stroke:black;stroke-width:1" /><text x="470" y="5480" font-size="10" style="fill:blue">equipoClasificado</text><path d="M440 5490 C460 5490 440 5490 460 5490" style="fill:transparent;stroke:black" /><text x="470" y="5490" font-size="8" style="fill:black">posicion: 1</text><rect x="680" y="5470" width="200" height="40" style="fill:white;stroke:black;stroke-width:1" /><text x="690" y="5480" font-size="10" style="fill:blue">nombreEquipo</text><path d="M660 5490 C680 5490 660 5490 680 5490" style="fill:transparent;stroke:black" /><rect x="746" y="5470" width="137" height="40" style="fill:green;stroke:black;stroke-width:1" /><text x="756" y="5480" font-size="8" style="fill:white">Decathlon CMA CGM</text><rect x="680" y="5520" width="200" height="40" style="fill:white;stroke:black;stroke-width:1" /><text x="690" y="5530" font-size="10" style="fill:blue">diferencia</text><path d="M660 5490 C680 5490 660 5540 680 5540" style="fill:transparent;stroke:black" /><rect x="746" y="5520" width="137" height="40" style="fill:green;stroke:black;stroke-width:1" /><text x="756" y="5530" font-size="8" style="fill:white">líder</text><rect x="460" y="5620" width="200" height="40" style="fill:white;stroke:black;stroke-width:1" /><text x="470" y="5630" font-size="10" style="fill:blue">equipoClasificado</text><path d="M440 5490 C460 5490 440 5640 460 5640" style="fill:transparent;stroke:black" /><text x="470" y="5640" font-size="8" style="fill:black">posicion: 2</text><rect x="680" y="5620" width="200" height="40" style="fill:white;stroke:black;stroke-width:1" /><text x="690" y="5630" font-size="10" style="fill:blue">nombreEquipo</text><path d="M660 5640 C680 5640 660 5640 680 5640" style="fill:transparent;stroke:black" /><rect x="746" y="5620" width="137" height="40" style="fill:green;stroke:black;stroke-width:1" /><text x="756" y="5630" font-size="8" style="fill:white">XDS-Astana Team</text><rect x="680" y="5670" width="200" height="40" style="fill:white;stroke:black;stroke-width:1" /><text x="690" y="5680" font-size="10" style="fill:blue">diferencia</text><path d="M660 5640 C680 5640 660 5690 680 5690" style="fill:transparent;stroke:black" /><rect x="746" y="5670" width="137" height="40" style="fill:green;stroke:black;stroke-width:1" /><text x="756" y="5680" font-size="8" style="fill:white">+57'32"</text><rect x="460" y="5770" width="200" height="40" style="fill:white;stroke:black;stroke-width:1" /><text x="470" y="5780" font-size="10" style="fill:blue">equipoClasificado</text><path d="M440 5490 C460 5490 440 5790 460 5790" style="fill:transparent;stroke:black" /><text x="470" y="5790" font-size="8" style="fill:black">posicion: 3</text><rect x="680" y="5770" width="200" height="40" style="fill:white;stroke:black;stroke-width:1" /><text x="690" y="5780" font-size="10" style="fill:blue">nombreEquipo</text><path d="M660 5790 C680 5790 660 5790 680 5790" style="fill:transparent;stroke:black" /><rect x="746" y="5770" width="137" height="40" style="fill:green;stroke:black;stroke-width:1" /><text x="756" y="5780" font-size="8" style="fill:white">Bahrain-Victorious</text><rect x="680" y="5820" width="200" height="40" style="fill:white;stroke:black;stroke-width:1" /><text x="690" y="5830" font-size="10" style="fill:blue">diferencia</text><path d="M660 5790 C680 5790 660 5840 680 5840" style="fill:transparent;stroke:black" /><rect x="746" y="5820" width="137" height="40" style="fill:green;stroke:black;stroke-width:1" /><text x="756" y="5830" font-size="8" style="fill:white">+1h 11'15"</text></svg>